<svg width="25" height="25" viewBox="0 0 25 25" fill="none" xmlns="http://www.w3.org/2000/svg">
<mask id="path-1-inside-1_72_56" fill="white">
<path d="M25 12.5C25 10.8585 24.6767 9.23303 24.0485 7.71646C23.4203 6.19989 22.4996 4.8219 21.3388 3.66116C20.1781 2.50043 18.8001 1.57969 17.2835 0.951506C15.767 0.323322 14.1415 -7.17533e-08 12.5 0C10.8585 7.17533e-08 9.23303 0.323322 7.71646 0.951506C6.19989 1.57969 4.8219 2.50043 3.66116 3.66117C2.50043 4.8219 1.57969 6.19989 0.951505 7.71646C0.323322 9.23303 -1.43506e-07 10.8585 0 12.5L12.5 12.5H25Z"/>
</mask>
<path d="M25 12.5C25 10.8585 24.6767 9.23303 24.0485 7.71646C23.4203 6.19989 22.4996 4.8219 21.3388 3.66116C20.1781 2.50043 18.8001 1.57969 17.2835 0.951506C15.767 0.323322 14.1415 -7.17533e-08 12.5 0C10.8585 7.17533e-08 9.23303 0.323322 7.71646 0.951506C6.19989 1.57969 4.8219 2.50043 3.66116 3.66117C2.50043 4.8219 1.57969 6.19989 0.951505 7.71646C0.323322 9.23303 -1.43506e-07 10.8585 0 12.5L12.5 12.5H25Z" fill="#FF0000" stroke="black" stroke-width="2" mask="url(#path-1-inside-1_72_56)"/>
<mask id="path-2-inside-2_72_56" fill="white">
<path d="M0 12.5C0 14.1415 0.323322 15.767 0.951506 17.2835C1.57969 18.8001 2.50043 20.1781 3.66117 21.3388C4.8219 22.4996 6.19989 23.4203 7.71646 24.0485C9.23303 24.6767 10.8585 25 12.5 25C14.1415 25 15.767 24.6767 17.2835 24.0485C18.8001 23.4203 20.1781 22.4996 21.3388 21.3388C22.4996 20.1781 23.4203 18.8001 24.0485 17.2835C24.6767 15.767 25 14.1415 25 12.5L12.5 12.5L0 12.5Z"/>
</mask>
<path d="M0 12.5C0 14.1415 0.323322 15.767 0.951506 17.2835C1.57969 18.8001 2.50043 20.1781 3.66117 21.3388C4.8219 22.4996 6.19989 23.4203 7.71646 24.0485C9.23303 24.6767 10.8585 25 12.5 25C14.1415 25 15.767 24.6767 17.2835 24.0485C18.8001 23.4203 20.1781 22.4996 21.3388 21.3388C22.4996 20.1781 23.4203 18.8001 24.0485 17.2835C24.6767 15.767 25 14.1415 25 12.5L12.5 12.5L0 12.5Z" fill="white" stroke="black" stroke-width="2" mask="url(#path-2-inside-2_72_56)"/>
<circle cx="12.5" cy="12.5" r="3.75" fill="black"/>
<circle cx="12.5" cy="12.5" r="2.5" fill="white"/>
</svg>
